<?xml version="1.0" encoding="UTF-8" standalone="no"?>
<!-- Created with Inkscape (http://www.inkscape.org/) -->

<svg
   version="1.1"
   id="svg2"
   xml:space="preserve"
   width="1122.52"
   height="793.70135"
   viewBox="0 0 1122.52 793.70135"
   sodipodi:docname="Frontol Logo Design - Final.ai"
   xmlns:inkscape="http://www.inkscape.org/namespaces/inkscape"
   xmlns:sodipodi="http://sodipodi.sourceforge.net/DTD/sodipodi-0.dtd"
   xmlns="http://www.w3.org/2000/svg"
   xmlns:svg="http://www.w3.org/2000/svg"><defs
     id="defs6"><clipPath
       clipPathUnits="userSpaceOnUse"
       id="clipPath18"><path
         d="M 0,595.276 H 841.89 V 0 H 0 Z"
         id="path16" /></clipPath></defs><sodipodi:namedview
     id="namedview4"
     pagecolor="#ffffff"
     bordercolor="#666666"
     borderopacity="1.0"
     inkscape:pageshadow="2"
     inkscape:pageopacity="0.0"
     inkscape:pagecheckerboard="0" /><g
     id="g8"
     inkscape:groupmode="layer"
     inkscape:label="Frontol Logo Design - Final"
     transform="matrix(1.3333333,0,0,-1.3333333,0,793.70133)"><path
       d="M 0,0 H 841.89 V 595.276 H 0 Z"
       style="fill:#171e44;fill-opacity:1;fill-rule:nonzero;stroke:none"
       id="path10" /><g
       id="g12"><g
         id="g14"
         clip-path="url(#clipPath18)"><g
           id="g20"
           transform="translate(396.0723,311.0762)"><path
             d="m 0,0 c -0.703,-0.614 -1.053,-1.695 -1.053,-3.235 v -0.041 h 4.707 v -5.002 h -4.707 v -18.278 h -5.924 v 18.278 h -2.982 v 5.002 h 2.982 v 0.546 c 0,2.774 0.793,4.907 2.377,6.407 1.579,1.499 3.928,2.248 7.036,2.248 0.533,0 0.939,-0.015 1.218,-0.042 V 0.758 C 1.92,0.87 0.699,0.616 0,0"
             style="fill:#2ba4dd;fill-opacity:1;fill-rule:nonzero;stroke:none"
             id="path22" /></g><g
           id="g24"
           transform="translate(412.625,306.855)"><path
             d="M 0,0 C 1.43,0.855 3.025,1.281 4.791,1.281 V -5.064 H 3.068 c -4.339,0 -6.513,-2.018 -6.513,-6.052 V -22.334 H -9.369 V 0.945 h 5.924 V -3.511 C -2.574,-2.025 -1.426,-0.854 0,0"
             style="fill:#2ba4dd;fill-opacity:1;fill-rule:nonzero;stroke:none"
             id="path26" /></g><g
           id="g28"
           transform="translate(427.2476,301.2227)"><path
             d="m 0,0 c -1.15,-1.161 -1.725,-2.85 -1.725,-5.062 0,-2.211 0.575,-3.903 1.725,-5.065 1.146,-1.163 2.547,-1.742 4.203,-1.742 1.652,0 3.051,0.579 4.199,1.742 1.149,1.162 1.723,2.854 1.723,5.065 C 10.125,-2.85 9.551,-1.161 8.402,0 7.254,1.165 5.855,1.744 4.203,1.744 2.547,1.744 1.146,1.165 0,0 m 10.316,5.441 c 1.805,-0.951 3.227,-2.333 4.264,-4.136 1.035,-1.809 1.553,-3.931 1.553,-6.367 0,-2.436 -0.518,-4.551 -1.553,-6.344 -1.037,-1.793 -2.459,-3.172 -4.264,-4.14 -1.81,-0.964 -3.845,-1.449 -6.113,-1.449 -2.271,0 -4.31,0.485 -6.115,1.449 -1.809,0.968 -3.228,2.347 -4.263,4.14 -1.039,1.793 -1.557,3.908 -1.557,6.344 0,2.436 0.518,4.558 1.557,6.367 1.035,1.803 2.454,3.185 4.263,4.136 1.805,0.954 3.844,1.431 6.115,1.431 2.268,0 4.303,-0.477 6.113,-1.431"
             style="fill:#2ba4dd;fill-opacity:1;fill-rule:nonzero;stroke:none"
             id="path30" /></g><g
           id="g32"
           transform="translate(467.8804,305.4883)"><path
             d="M 0,0 C 1.596,-1.765 2.393,-4.243 2.393,-7.437 V -20.968 H -3.488 V -8.11 c 0,1.849 -0.477,3.286 -1.43,4.309 -0.953,1.02 -2.256,1.531 -3.908,1.531 -1.68,0 -3.024,-0.544 -4.035,-1.639 -1.008,-1.091 -1.51,-2.66 -1.51,-4.704 v -12.355 h -5.926 V 2.311 h 5.926 v -4.663 c 0.615,1.567 1.629,2.793 3.045,3.675 1.416,0.881 3.045,1.324 4.896,1.324 C -3.744,2.647 -1.6,1.764 0,0"
             style="fill:#2ba4dd;fill-opacity:1;fill-rule:nonzero;stroke:none"
             id="path34" /></g><g
           id="g36"
           transform="translate(487.9214,289.6055)"><path
             d="m 0,0 v -5.085 h -3.111 c -2.604,0 -4.6,0.631 -5.987,1.892 -1.386,1.261 -2.082,3.359 -2.082,6.302 v 10.085 h -3.234 v 5 h 3.234 v 5.757 h 5.928 v -5.757 h 5.207 v -5 H -5.252 V 3.026 c 0,-1.121 0.221,-1.907 0.67,-2.352 C -4.133,0.227 -3.375,0 -2.314,0 Z"
             style="fill:#2ba4dd;fill-opacity:1;fill-rule:nonzero;stroke:none"
             id="path38" /></g><g
           id="g40"
           transform="translate(501.5327,306.855)"><path
             d="M 0,0 C 1.43,0.855 3.027,1.281 4.789,1.281 V -5.064 H 3.066 c -4.341,0 -6.509,-2.018 -6.509,-6.052 V -22.334 H -9.371 V 0.945 h 5.928 V -3.511 C -2.576,-2.025 -1.428,-0.854 0,0"
             style="fill:#2ba4dd;fill-opacity:1;fill-rule:nonzero;stroke:none"
             id="path42" /></g><g
           id="g44"
           transform="translate(516.1558,301.2227)"><path
             d="m 0,0 c -1.148,-1.161 -1.725,-2.85 -1.725,-5.062 0,-2.211 0.577,-3.903 1.725,-5.065 1.148,-1.163 2.549,-1.742 4.199,-1.742 1.656,0 3.057,0.579 4.203,1.742 1.149,1.162 1.723,2.854 1.723,5.065 C 10.125,-2.85 9.551,-1.161 8.402,0 7.256,1.165 5.855,1.744 4.199,1.744 2.549,1.744 1.148,1.165 0,0 m 10.314,5.441 c 1.807,-0.951 3.227,-2.333 4.266,-4.136 1.035,-1.809 1.555,-3.931 1.555,-6.367 0,-2.436 -0.52,-4.551 -1.555,-6.344 -1.039,-1.793 -2.459,-3.172 -4.266,-4.14 -1.804,-0.964 -3.845,-1.449 -6.115,-1.449 -2.267,0 -4.304,0.485 -6.111,1.449 -1.809,0.968 -3.231,2.347 -4.266,4.14 -1.037,1.793 -1.554,3.908 -1.554,6.344 0,2.436 0.517,4.558 1.554,6.367 1.035,1.803 2.457,3.185 4.266,4.136 1.807,0.954 3.844,1.431 6.111,1.431 2.27,0 4.311,-0.477 6.115,-1.431"
             style="fill:#2ba4dd;fill-opacity:1;fill-rule:nonzero;stroke:none"
             id="path46" /></g><path
           d="m 542.417,284.521 h -5.926 v 31.095 h 5.926 z"
           style="fill:#2ba4dd;fill-opacity:1;fill-rule:nonzero;stroke:none"
           id="path48" /><g
           id="g50"
           transform="translate(392.4199,266.8691)"><path
             d="M 0,0 C 0.41,0.394 0.613,0.954 0.613,1.673 0.613,2.419 0.41,2.981 0,3.368 -0.41,3.758 -1.086,3.952 -2.018,3.952 h -2.109 v -4.541 h 2.109 C -1.086,-0.589 -0.41,-0.393 0,0 M -4.127,-1.872 V -6.667 H -5.664 V 5.234 h 3.783 c 1.358,0 2.377,-0.32 3.055,-0.955 0.674,-0.633 1.014,-1.504 1.014,-2.606 0,-1.114 -0.352,-1.984 -1.049,-2.608 -0.698,-0.624 -1.703,-0.937 -3.02,-0.937 z"
             style="fill:#2ba4dd;fill-opacity:1;fill-rule:nonzero;stroke:none"
             id="path52" /></g><g
           id="g54"
           transform="translate(399.2637,269.0908)"><path
             d="M 0,0 C 0.586,0.354 1.283,0.531 2.094,0.531 V -1.138 H 1.619 c -0.865,0 -1.574,-0.224 -2.125,-0.667 -0.553,-0.445 -0.826,-1.179 -0.826,-2.204 v -4.88 h -1.537 v 9.267 h 1.537 V -1.491 C -1.029,-0.852 -0.586,-0.356 0,0"
             style="fill:#2ba4dd;fill-opacity:1;fill-rule:nonzero;stroke:none"
             id="path56" /></g><g
           id="g58"
           transform="translate(405.5508,267.8682)"><path
             d="m 0,0 c -0.467,-0.25 -0.844,-0.631 -1.133,-1.14 -0.285,-0.514 -0.429,-1.144 -0.429,-1.898 0,-0.742 0.144,-1.368 0.429,-1.883 0.289,-0.513 0.666,-0.89 1.133,-1.141 0.467,-0.249 0.975,-0.369 1.527,-0.369 0.551,0 1.063,0.12 1.528,0.369 0.468,0.251 0.843,0.628 1.131,1.141 0.287,0.515 0.431,1.141 0.431,1.883 0,0.754 -0.144,1.384 -0.431,1.898 C 3.898,-0.631 3.523,-0.25 3.055,0 2.59,0.247 2.078,0.371 1.527,0.371 0.975,0.371 0.467,0.247 0,0 M 3.916,1.145 C 4.619,0.765 5.172,0.214 5.568,-0.51 5.969,-1.226 6.17,-2.071 6.17,-3.038 6.17,-4.008 5.969,-4.848 5.568,-5.56 5.172,-6.276 4.619,-6.827 3.916,-7.209 3.211,-7.592 2.416,-7.783 1.527,-7.783 c -0.888,0 -1.685,0.191 -2.388,0.574 -0.703,0.382 -1.258,0.933 -1.664,1.649 -0.403,0.712 -0.606,1.552 -0.606,2.522 0,0.967 0.203,1.812 0.606,2.528 0.406,0.724 0.961,1.275 1.664,1.655 0.703,0.383 1.5,0.576 2.388,0.576 0.889,0 1.684,-0.193 2.389,-0.576"
             style="fill:#2ba4dd;fill-opacity:1;fill-rule:nonzero;stroke:none"
             id="path60" /></g><g
           id="g62"
           transform="translate(415.6934,267.3193)"><path
             d="m 0,0 c -0.566,-0.604 -0.854,-1.433 -0.854,-2.489 0,-1.059 0.288,-1.889 0.854,-2.49 0.57,-0.603 1.326,-0.903 2.273,-0.903 0.606,0 1.149,0.139 1.629,0.42 0.475,0.283 0.85,0.677 1.119,1.191 0.272,0.51 0.407,1.105 0.407,1.782 0,0.673 -0.135,1.27 -0.407,1.789 C 4.752,-0.184 4.377,0.214 3.902,0.489 3.422,0.765 2.879,0.902 2.273,0.902 1.326,0.902 0.57,0.601 0,0 M 4.119,1.596 C 4.742,1.145 5.182,0.54 5.428,-0.213 V 2.15 H 6.962 V -7.114 H 5.428 v 2.362 C 5.182,-5.508 4.742,-6.107 4.119,-6.556 3.496,-7.01 2.732,-7.234 1.832,-7.234 c -0.822,0 -1.551,0.192 -2.195,0.574 -0.639,0.382 -1.143,0.932 -1.51,1.649 -0.365,0.712 -0.549,1.552 -0.549,2.522 0,0.967 0.184,1.812 0.549,2.528 0.367,0.724 0.871,1.274 1.51,1.655 0.644,0.383 1.373,0.576 2.195,0.576 0.9,0 1.664,-0.226 2.287,-0.674"
             style="fill:#2ba4dd;fill-opacity:1;fill-rule:nonzero;stroke:none"
             id="path64" /></g><g
           id="g66"
           transform="translate(432.1421,268.6416)"><path
             d="m 0,0 c 0.777,-0.63 1.252,-1.476 1.436,-2.53 h -1.623 c -0.11,0.665 -0.417,1.184 -0.918,1.561 -0.5,0.373 -1.124,0.567 -1.866,0.567 -0.541,0 -1.033,-0.127 -1.478,-0.371 -0.446,-0.25 -0.801,-0.627 -1.069,-1.143 -0.273,-0.512 -0.406,-1.142 -0.406,-1.896 0,-0.756 0.133,-1.389 0.406,-1.902 0.268,-0.511 0.623,-0.891 1.069,-1.136 0.445,-0.25 0.937,-0.374 1.478,-0.374 0.742,0 1.366,0.191 1.866,0.577 0.501,0.384 0.808,0.905 0.918,1.568 H 1.436 C 1.252,-6.146 0.777,-6.994 0,-7.619 c -0.777,-0.622 -1.758,-0.938 -2.939,-0.938 -0.887,0 -1.676,0.193 -2.362,0.575 -0.685,0.381 -1.222,0.932 -1.611,1.649 -0.387,0.712 -0.58,1.552 -0.58,2.521 0,0.967 0.193,1.813 0.58,2.529 0.389,0.723 0.926,1.274 1.611,1.654 0.686,0.384 1.475,0.576 2.362,0.576 C -1.758,0.947 -0.777,0.633 0,0"
             style="fill:#2ba4dd;fill-opacity:1;fill-rule:nonzero;stroke:none"
             id="path68" /></g><g
           id="g70"
           transform="translate(440.0093,261.5557)"><path
             d="m 0,0 v -1.351 h -1.15 c -0.944,0 -1.651,0.222 -2.12,0.675 -0.462,0.451 -0.699,1.205 -0.699,2.262 v 4.993 h -1.385 v 1.335 h 1.385 v 2.314 h 1.553 V 7.914 h 2.398 V 6.579 H -2.416 V 1.553 c 0,-0.598 0.109,-1.003 0.328,-1.227 C -1.869,0.108 -1.488,0 -0.947,0 Z"
             style="fill:#2ba4dd;fill-opacity:1;fill-rule:nonzero;stroke:none"
             id="path72" /></g><path
           d="m 443.416,260.202 h -1.533 v 9.267 h 1.533 z m -1.518,12.672 c 0.189,0.172 0.443,0.258 0.76,0.258 0.314,0 0.566,-0.086 0.758,-0.258 0.191,-0.177 0.289,-0.405 0.289,-0.687 0,-0.279 -0.098,-0.509 -0.289,-0.685 -0.192,-0.172 -0.444,-0.261 -0.758,-0.261 -0.317,0 -0.571,0.089 -0.76,0.261 -0.19,0.176 -0.287,0.406 -0.287,0.685 0,0.282 0.097,0.51 0.287,0.687"
           style="fill:#2ba4dd;fill-opacity:1;fill-rule:nonzero;stroke:none"
           id="path74" /><g
           id="g76"
           transform="translate(449.4741,261.8408)"><path
             d="M 0,0 2.873,7.628 H 4.525 L 0.896,-1.639 h -1.82 L -4.555,7.628 H -2.9 Z"
             style="fill:#2ba4dd;fill-opacity:1;fill-rule:nonzero;stroke:none"
             id="path78" /></g><g
           id="g80"
           transform="translate(462.1362,266.9727)"><path
             d="M 0,0 C -0.26,0.459 -0.613,0.804 -1.066,1.031 -1.514,1.253 -2.002,1.366 -2.531,1.366 -3.379,1.366 -4.09,1.105 -4.658,0.58 -5.234,0.06 -5.545,-0.71 -5.588,-1.722 H 0.336 C 0.371,-1.032 0.258,-0.464 0,0 m 1.822,-2.462 h -7.41 c 0.031,-1.06 0.334,-1.852 0.904,-2.381 0.565,-0.531 1.262,-0.798 2.082,-0.798 0.745,0 1.366,0.193 1.866,0.569 0.502,0.377 0.804,0.88 0.922,1.51 H 1.822 C 1.707,-4.201 1.455,-4.775 1.068,-5.285 c -0.386,-0.505 -0.89,-0.9 -1.509,-1.18 -0.62,-0.283 -1.315,-0.423 -2.09,-0.423 -0.891,0 -1.676,0.193 -2.367,0.575 -0.684,0.381 -1.223,0.932 -1.61,1.649 -0.39,0.712 -0.584,1.552 -0.584,2.521 0,0.967 0.194,1.813 0.584,2.529 0.387,0.723 0.926,1.274 1.61,1.654 0.691,0.384 1.476,0.576 2.367,0.576 0.898,0 1.681,-0.192 2.351,-0.576 0.668,-0.38 1.182,-0.893 1.537,-1.534 0.354,-0.642 0.532,-1.351 0.532,-2.127 0,-0.329 -0.024,-0.608 -0.067,-0.841"
             style="fill:#2ba4dd;fill-opacity:1;fill-rule:nonzero;stroke:none"
             id="path82" /></g><g
           id="g84"
           transform="translate(479.064,271.1504)"><path
             d="M 0,0 C 0.947,-0.715 1.6,-1.691 1.957,-2.929 H 0.336 c -0.303,0.787 -0.793,1.414 -1.469,1.884 -0.672,0.466 -1.502,0.698 -2.48,0.698 -0.776,0 -1.471,-0.186 -2.084,-0.566 -0.612,-0.376 -1.096,-0.915 -1.449,-1.616 -0.358,-0.705 -0.534,-1.529 -0.534,-2.478 0,-0.931 0.176,-1.749 0.534,-2.444 0.353,-0.698 0.837,-1.236 1.449,-1.614 0.613,-0.376 1.308,-0.563 2.084,-0.563 0.978,0 1.808,0.232 2.48,0.698 0.676,0.468 1.166,1.094 1.469,1.884 H 1.957 C 1.6,-8.283 0.947,-9.26 0,-9.976 c -0.945,-0.713 -2.145,-1.072 -3.596,-1.072 -1.115,0 -2.097,0.258 -2.953,0.769 -0.853,0.509 -1.521,1.225 -2,2.142 -0.476,0.916 -0.717,1.959 -0.717,3.13 0,1.182 0.241,2.236 0.717,3.157 0.479,0.925 1.147,1.64 2,2.155 0.856,0.51 1.838,0.764 2.953,0.764 C -2.145,1.069 -0.945,0.714 0,0"
             style="fill:#2ba4dd;fill-opacity:1;fill-rule:nonzero;stroke:none"
             id="path86" /></g><g
           id="g88"
           transform="translate(485.7554,267.8682)"><path
             d="m 0,0 c -0.465,-0.25 -0.844,-0.631 -1.131,-1.14 -0.287,-0.514 -0.43,-1.144 -0.43,-1.898 0,-0.742 0.143,-1.368 0.43,-1.883 0.287,-0.513 0.666,-0.89 1.131,-1.141 0.467,-0.249 0.977,-0.369 1.529,-0.369 0.549,0 1.059,0.12 1.526,0.369 0.466,0.251 0.843,0.628 1.131,1.141 0.289,0.515 0.431,1.141 0.431,1.883 0,0.754 -0.142,1.384 -0.431,1.898 C 3.898,-0.631 3.521,-0.25 3.055,0 2.588,0.247 2.078,0.371 1.529,0.371 0.977,0.371 0.467,0.247 0,0 M 3.916,1.145 C 4.619,0.765 5.17,0.214 5.568,-0.51 5.969,-1.226 6.17,-2.071 6.17,-3.038 6.17,-4.008 5.969,-4.848 5.568,-5.56 5.17,-6.276 4.619,-6.827 3.916,-7.209 3.211,-7.592 2.418,-7.783 1.529,-7.783 c -0.89,0 -1.685,0.191 -2.388,0.574 -0.705,0.382 -1.26,0.933 -1.664,1.649 -0.405,0.712 -0.608,1.552 -0.608,2.522 0,0.967 0.203,1.812 0.608,2.528 0.404,0.724 0.959,1.275 1.664,1.655 0.703,0.383 1.498,0.576 2.388,0.576 0.889,0 1.682,-0.193 2.387,-0.576"
             style="fill:#2ba4dd;fill-opacity:1;fill-rule:nonzero;stroke:none"
             id="path90" /></g><g
           id="g92"
           transform="translate(501.4272,268.5859)"><path
             d="m 0,0 c 0.664,-0.693 0.992,-1.693 0.992,-3 v -5.384 h -1.533 v 5.252 c 0,0.922 -0.234,1.629 -0.707,2.13 -0.475,0.491 -1.115,0.738 -1.924,0.738 -0.846,0 -1.523,-0.272 -2.025,-0.82 -0.51,-0.545 -0.762,-1.34 -0.762,-2.386 v -4.914 h -1.535 v 9.267 h 1.535 v -2.195 c 0.236,0.754 0.656,1.334 1.26,1.739 0.599,0.405 1.295,0.606 2.08,0.606 C -1.535,1.033 -0.664,0.689 0,0"
             style="fill:#2ba4dd;fill-opacity:1;fill-rule:nonzero;stroke:none"
             id="path94" /></g><g
           id="g96"
           transform="translate(509.2085,261.5557)"><path
             d="m 0,0 v -1.351 h -1.146 c -0.946,0 -1.653,0.222 -2.12,0.675 -0.466,0.451 -0.699,1.205 -0.699,2.262 v 4.993 h -1.387 v 1.335 h 1.387 v 2.314 h 1.553 V 7.914 h 2.394 V 6.579 H -2.412 V 1.553 c 0,-0.598 0.107,-1.003 0.326,-1.227 C -1.867,0.108 -1.488,0 -0.945,0 Z"
             style="fill:#2ba4dd;fill-opacity:1;fill-rule:nonzero;stroke:none"
             id="path98" /></g><g
           id="g100"
           transform="translate(513.9507,269.0908)"><path
             d="M 0,0 C 0.584,0.354 1.283,0.531 2.094,0.531 V -1.138 H 1.621 c -0.867,0 -1.574,-0.224 -2.127,-0.667 -0.553,-0.445 -0.828,-1.179 -0.828,-2.204 v -4.88 h -1.537 v 9.267 h 1.537 V -1.491 C -1.031,-0.852 -0.584,-0.356 0,0"
             style="fill:#2ba4dd;fill-opacity:1;fill-rule:nonzero;stroke:none"
             id="path102" /></g><g
           id="g104"
           transform="translate(520.2358,267.8682)"><path
             d="m 0,0 c -0.465,-0.25 -0.842,-0.631 -1.129,-1.14 -0.289,-0.514 -0.43,-1.144 -0.43,-1.898 0,-0.742 0.141,-1.368 0.43,-1.883 0.287,-0.513 0.664,-0.89 1.129,-1.141 0.467,-0.249 0.977,-0.369 1.531,-0.369 0.549,0 1.059,0.12 1.524,0.369 0.468,0.251 0.847,0.628 1.132,1.141 0.29,0.515 0.43,1.141 0.43,1.883 0,0.754 -0.14,1.384 -0.43,1.898 C 3.902,-0.631 3.523,-0.25 3.055,0 2.59,0.247 2.08,0.371 1.531,0.371 0.977,0.371 0.467,0.247 0,0 M 3.918,1.145 C 4.621,0.765 5.172,0.214 5.57,-0.51 c 0.403,-0.716 0.6,-1.561 0.6,-2.528 0,-0.97 -0.197,-1.81 -0.6,-2.522 -0.398,-0.716 -0.949,-1.267 -1.652,-1.649 -0.705,-0.383 -1.5,-0.574 -2.387,-0.574 -0.892,0 -1.687,0.191 -2.39,0.574 -0.703,0.382 -1.256,0.933 -1.662,1.649 -0.403,0.712 -0.61,1.552 -0.61,2.522 0,0.967 0.207,1.812 0.61,2.528 0.406,0.724 0.959,1.275 1.662,1.655 0.703,0.383 1.498,0.576 2.39,0.576 0.887,0 1.682,-0.193 2.387,-0.576"
             style="fill:#2ba4dd;fill-opacity:1;fill-rule:nonzero;stroke:none"
             id="path106" /></g><path
           d="m 529.951,260.202 h -1.535 v 12.49 h 1.535 z"
           style="fill:#2ba4dd;fill-opacity:1;fill-rule:nonzero;stroke:none"
           id="path108" /><g
           id="g110"
           transform="translate(367.4687,324.2432)"><path
             d="m 0,0 c 0,-6.048 -4.9,-10.952 -10.945,-10.952 -6.051,0 -10.953,4.904 -10.953,10.952 0,6.043 4.902,10.948 10.953,10.948 C -4.9,10.948 0,6.043 0,0"
             style="fill:#2ba4dd;fill-opacity:1;fill-rule:nonzero;stroke:none"
             id="path112" /></g><g
           id="g114"
           transform="translate(299.4727,279.7686)"><path
             d="m 0,0 c 2.092,3.16 5.43,5.446 9.418,6.131 0.115,0.02 0.283,0.054 0.477,0.081 l 0.033,0.017 0.527,0.05 c 0.399,0.034 0.824,0.063 1.326,0.063 9.162,0.024 9.426,7.772 9.426,8.652 0,4.567 2.303,8.597 5.805,11.009 h -15.231 -0.76 c -6.05,0 -11,-4.952 -11,-11.009 0,-0.068 0.006,-0.133 0.006,-0.199 C 0.021,14.608 0,14.418 0,14.224 Z"
             style="fill:#2ba4dd;fill-opacity:1;fill-rule:nonzero;stroke:none"
             id="path116" /></g><g
           id="g118"
           transform="translate(343.4824,324.2432)"><path
             d="m 0,0 c 0,4.591 2.379,8.625 5.977,10.948 h -39.038 c -6.043,0 -10.949,-4.905 -10.949,-10.951 0,-6.048 4.906,-10.949 10.949,-10.949 H 5.977 C 2.379,-8.631 0,-4.596 0,0"
             style="fill:#2ba4dd;fill-opacity:1;fill-rule:nonzero;stroke:none"
             id="path120" /></g><g
           id="g122"
           transform="translate(334.0332,305.772)"><path
             d="m 0,0 c -6.05,0 -10.999,-4.95 -11,-11.009 0,0 0,-10.97 -11.779,-11.003 -0.459,0 -0.844,-0.03 -1.198,-0.06 h -0.011 c -0.289,-0.033 -0.541,-0.07 -0.76,-0.12 -5.551,-0.951 -9.813,-5.792 -9.813,-11.6 0,-6.48 5.301,-11.778 11.782,-11.778 6.474,0 11.779,5.298 11.779,11.778 v 11.777 H 0 c 6.059,0 11.012,4.954 11.012,11.003 C 11.012,-4.952 6.059,0 0,0"
             style="fill:#2ba4dd;fill-opacity:1;fill-rule:nonzero;stroke:none"
             id="path124" /></g></g></g></g></svg>
