<svg width="322" height="101" viewBox="0 0 322 101" fill="none" xmlns="http://www.w3.org/2000/svg">
<path d="M126.8 32.1533C125.863 32.972 125.396 34.4133 125.396 36.4667V36.5213H131.672V43.1907H125.396V67.5613H117.497V43.1907H113.521V36.5213H117.497V35.7933C117.497 32.0947 118.555 29.2507 120.667 27.2507C122.772 25.252 125.904 24.2533 130.048 24.2533C130.759 24.2533 131.3 24.2733 131.672 24.3093V31.1427C129.36 30.9933 127.732 31.332 126.8 32.1533Z" fill="white"/>
<path d="M148.87 37.7816C150.777 36.6416 152.904 36.0736 155.258 36.0736V44.5336H152.961C147.176 44.5336 144.277 47.2243 144.277 52.603V67.5603H136.378V36.5216H144.277V42.463C145.438 40.4816 146.969 38.9203 148.87 37.7816Z" fill="white"/>
<path d="M168.367 45.2914C166.834 46.8394 166.067 49.0914 166.067 52.0407C166.067 54.9887 166.834 57.2447 168.367 58.794C169.895 60.3447 171.763 61.1167 173.971 61.1167C176.174 61.1167 178.039 60.3447 179.57 58.794C181.102 57.2447 181.867 54.9887 181.867 52.0407C181.867 49.0914 181.102 46.8394 179.57 45.2914C178.039 43.738 176.174 42.966 173.971 42.966C171.763 42.966 169.895 43.738 168.367 45.2914ZM182.122 38.0367C184.529 39.3047 186.425 41.1474 187.807 43.5514C189.187 45.9634 189.878 48.7927 189.878 52.0407C189.878 55.2887 189.187 58.1087 187.807 60.4994C186.425 62.89 184.529 64.7287 182.122 66.0194C179.709 67.3047 176.995 67.9514 173.971 67.9514C170.943 67.9514 168.225 67.3047 165.818 66.0194C163.406 64.7287 161.514 62.89 160.134 60.4994C158.749 58.1087 158.058 55.2887 158.058 52.0407C158.058 48.7927 158.749 45.9634 160.134 43.5514C161.514 41.1474 163.406 39.3047 165.818 38.0367C168.225 36.7647 170.943 36.1287 173.971 36.1287C176.995 36.1287 179.709 36.7647 182.122 38.0367" fill="white"/>
<path d="M222.544 39.6038C224.672 41.9572 225.735 45.2612 225.735 49.5198V67.5612H217.893V50.4172C217.893 47.9518 217.257 46.0358 215.987 44.6718C214.716 43.3118 212.979 42.6305 210.776 42.6305C208.536 42.6305 206.744 43.3558 205.396 44.8158C204.052 46.2705 203.383 48.3625 203.383 51.0878V67.5612H195.481V36.5225H203.383V42.7398C204.203 40.6505 205.555 39.0158 207.443 37.8398C209.331 36.6652 211.503 36.0745 213.971 36.0745C217.552 36.0745 220.411 37.2518 222.544 39.6038Z" fill="white"/>
<path d="M249.266 60.7809V67.5609H245.118C241.646 67.5609 238.984 66.7196 237.135 65.0382C235.287 63.3569 234.359 60.5596 234.359 56.6356V43.1889H230.047V36.5222H234.359V28.8462H242.263V36.5222H249.206V43.1889H242.263V56.7462C242.263 58.2409 242.558 59.2889 243.156 59.8822C243.755 60.4782 244.766 60.7809 246.18 60.7809H249.266Z" fill="white"/>
<path d="M267.414 37.7816C269.321 36.6416 271.45 36.0736 273.799 36.0736V44.5336H271.502C265.714 44.5336 262.823 47.2243 262.823 52.603V67.5603H254.919V36.5216H262.823V42.463C263.979 40.4816 265.51 38.9203 267.414 37.7816Z" fill="white"/>
<path d="M286.911 45.2914C285.381 46.8394 284.611 49.0914 284.611 52.0407C284.611 54.9887 285.381 57.2447 286.911 58.794C288.442 60.3447 290.31 61.1167 292.51 61.1167C294.718 61.1167 296.586 60.3447 298.114 58.794C299.646 57.2447 300.411 54.9887 300.411 52.0407C300.411 49.0914 299.646 46.8394 298.114 45.2914C296.586 43.738 294.718 42.966 292.51 42.966C290.31 42.966 288.442 43.738 286.911 45.2914ZM300.663 38.0367C303.073 39.3047 304.966 41.1474 306.351 43.5514C307.731 45.9634 308.425 48.7927 308.425 52.0407C308.425 55.2887 307.731 58.1087 306.351 60.4994C304.966 62.89 303.073 64.7287 300.663 66.0194C298.258 67.3047 295.537 67.9514 292.51 67.9514C289.487 67.9514 286.771 67.3047 284.362 66.0194C281.95 64.7287 280.054 62.89 278.674 60.4994C277.291 58.1087 276.602 55.2887 276.602 52.0407C276.602 48.7927 277.291 45.9634 278.674 43.5514C280.054 41.1474 281.95 39.3047 284.362 38.0367C286.771 36.7647 289.487 36.1287 292.51 36.1287C295.537 36.1287 298.258 36.7647 300.663 38.0367" fill="white"/>
<path d="M321.926 67.5603H314.025V26.1003H321.926V67.5603Z" fill="white"/>
<path d="M121.93 91.0961C122.477 90.5708 122.748 89.8241 122.748 88.8655C122.748 87.8708 122.477 87.1215 121.93 86.6055C121.384 86.0855 120.482 85.8268 119.24 85.8268H116.428V91.8815H119.24C120.482 91.8815 121.384 91.6201 121.93 91.0961ZM116.428 93.5921V99.9855H114.378V84.1175H119.422C121.233 84.1175 122.592 84.5441 123.496 85.3908C124.394 86.2348 124.848 87.3961 124.848 88.8655C124.848 90.3508 124.378 91.5108 123.449 92.3428C122.518 93.1748 121.178 93.5921 119.422 93.5921H116.428Z" fill="white"/>
<path d="M131.055 88.1339C131.837 87.6619 132.766 87.4259 133.847 87.4259V89.6512H133.214C132.061 89.6512 131.115 89.9499 130.381 90.5406C129.643 91.1339 129.279 92.1126 129.279 93.4792V99.9859H127.23V87.6299H129.279V90.1219C129.683 89.2699 130.274 88.6086 131.055 88.1339Z" fill="white"/>
<path d="M139.438 89.764C138.815 90.0974 138.313 90.6054 137.927 91.284C137.547 91.9694 137.355 92.8094 137.355 93.8147C137.355 94.804 137.547 95.6387 137.927 96.3254C138.313 97.0094 138.815 97.512 139.438 97.8467C140.061 98.1787 140.738 98.3387 141.474 98.3387C142.209 98.3387 142.891 98.1787 143.511 97.8467C144.135 97.512 144.635 97.0094 145.019 96.3254C145.402 95.6387 145.594 94.804 145.594 93.8147C145.594 92.8094 145.402 91.9694 145.019 91.284C144.635 90.6054 144.135 90.0974 143.511 89.764C142.891 89.4347 142.209 89.2694 141.474 89.2694C140.738 89.2694 140.061 89.4347 139.438 89.764ZM144.659 88.2374C145.597 88.744 146.334 89.4787 146.862 90.444C147.397 91.3987 147.665 92.5254 147.665 93.8147C147.665 95.108 147.397 96.228 146.862 97.1774C146.334 98.132 145.597 98.8667 144.659 99.376C143.719 99.8867 142.659 100.141 141.474 100.141C140.29 100.141 139.227 99.8867 138.29 99.376C137.353 98.8667 136.613 98.132 136.071 97.1774C135.534 96.228 135.263 95.108 135.263 93.8147C135.263 92.5254 135.534 91.3987 136.071 90.444C136.613 89.4787 137.353 88.744 138.29 88.2374C139.227 87.7267 140.29 87.4694 141.474 87.4694C142.659 87.4694 143.719 87.7267 144.659 88.2374" fill="white"/>
<path d="M152.962 90.4959C152.207 91.3012 151.823 92.4066 151.823 93.8146C151.823 95.2266 152.207 96.3332 152.962 97.1346C153.722 97.9386 154.73 98.3386 155.992 98.3386C156.8 98.3386 157.524 98.1532 158.164 97.7786C158.798 97.4012 159.298 96.8759 159.656 96.1906C160.019 95.5106 160.199 94.7172 160.199 93.8146C160.199 92.9172 160.019 92.1212 159.656 91.4292C159.298 90.7412 158.798 90.2106 158.164 89.8439C157.524 89.4759 156.8 89.2932 155.992 89.2932C154.73 89.2932 153.722 89.6946 152.962 90.4959ZM158.454 88.3679C159.284 88.9692 159.871 89.7759 160.199 90.7799V87.6292H162.244V99.9812H160.199V96.8319C159.871 97.8399 159.284 98.6386 158.454 99.2372C157.623 99.8426 156.604 100.141 155.404 100.141C154.308 100.141 153.336 99.8852 152.478 99.3759C151.626 98.8666 150.954 98.1332 150.464 97.1772C149.978 96.2279 149.732 95.1079 149.732 93.8146C149.732 92.5252 149.978 91.3986 150.464 90.4439C150.954 89.4786 151.626 88.7452 152.478 88.2372C153.336 87.7266 154.308 87.4692 155.404 87.4692C156.604 87.4692 157.623 87.7706 158.454 88.3679" fill="white"/>
<path d="M174.893 88.7328C175.929 89.5728 176.562 90.7008 176.808 92.1062H174.644C174.497 91.2195 174.088 90.5275 173.42 90.0248C172.753 89.5275 171.921 89.2688 170.932 89.2688C170.21 89.2688 169.554 89.4382 168.961 89.7635C168.366 90.0968 167.893 90.5995 167.536 91.2875C167.172 91.9702 166.994 92.8102 166.994 93.8155C166.994 94.8235 167.172 95.6675 167.536 96.3515C167.893 97.0328 168.366 97.5395 168.961 97.8662C169.554 98.1995 170.21 98.3648 170.932 98.3648C171.921 98.3648 172.753 98.1102 173.42 97.5955C174.088 97.0835 174.497 96.3888 174.644 95.5048H176.808C176.562 96.9275 175.929 98.0582 174.893 98.8915C173.857 99.7208 172.549 100.142 170.974 100.142C169.792 100.142 168.74 99.8848 167.825 99.3755C166.912 98.8675 166.196 98.1328 165.677 97.1768C165.161 96.2275 164.904 95.1075 164.904 93.8155C164.904 92.5262 165.161 91.3982 165.677 90.4435C166.196 89.4795 166.912 88.7448 167.825 88.2382C168.74 87.7262 169.792 87.4702 170.974 87.4702C172.549 87.4702 173.857 87.8888 174.893 88.7328Z" fill="white"/>
<path d="M185.383 98.1807V99.9821H183.849C182.591 99.9821 181.648 99.6861 181.023 99.0821C180.407 98.4807 180.091 97.4754 180.091 96.0661V89.4087H178.244V87.6287H180.091V84.5434H182.161V87.6287H185.359V89.4087H182.161V96.1101C182.161 96.9074 182.307 97.4474 182.599 97.7461C182.891 98.0367 183.399 98.1807 184.12 98.1807H185.383Z" fill="white"/>
<path d="M189.925 99.9856H187.881V87.6296H189.925V99.9856ZM187.901 83.0896C188.153 82.8603 188.492 82.7456 188.914 82.7456C189.333 82.7456 189.669 82.8603 189.925 83.0896C190.18 83.3256 190.31 83.6296 190.31 84.0056C190.31 84.3776 190.18 84.6842 189.925 84.9189C189.669 85.1482 189.333 85.2669 188.914 85.2669C188.492 85.2669 188.153 85.1482 187.901 84.9189C187.648 84.6842 187.518 84.3776 187.518 84.0056C187.518 83.6296 187.648 83.3256 187.901 83.0896Z" fill="white"/>
<path d="M198.003 97.8006L201.833 87.6299H204.036L199.197 99.9859H196.771L191.929 87.6299H194.136L198.003 97.8006Z" fill="white"/>
<path d="M214.885 90.958C214.539 90.346 214.068 89.886 213.464 89.5834C212.867 89.2874 212.216 89.1367 211.511 89.1367C210.38 89.1367 209.432 89.4847 208.675 90.1847C207.907 90.878 207.492 91.9047 207.435 93.254H215.333C215.38 92.334 215.229 91.5767 214.885 90.958ZM217.315 94.2407H207.435C207.476 95.654 207.88 96.71 208.64 97.4154C209.393 98.1234 210.323 98.4794 211.416 98.4794C212.409 98.4794 213.237 98.222 213.904 97.7207C214.573 97.218 214.976 96.5474 215.133 95.7074H217.315C217.161 96.5594 216.825 97.3247 216.309 98.0047C215.795 98.678 215.123 99.2047 214.297 99.578C213.471 99.9554 212.544 100.142 211.511 100.142C210.323 100.142 209.276 99.8847 208.355 99.3754C207.443 98.8674 206.724 98.1327 206.208 97.1767C205.688 96.2274 205.429 95.1074 205.429 93.8154C205.429 92.526 205.688 91.398 206.208 90.4434C206.724 89.4794 207.443 88.7447 208.355 88.238C209.276 87.726 210.323 87.47 211.511 87.47C212.708 87.47 213.752 87.726 214.645 88.238C215.536 88.7447 216.221 89.4287 216.695 90.2834C217.167 91.1394 217.404 92.0847 217.404 93.1194C217.404 93.558 217.372 93.93 217.315 94.2407" fill="white"/>
<path d="M237.456 85.3877C238.718 86.3411 239.589 87.6424 240.065 89.2931H237.904C237.5 88.2437 236.846 87.4077 235.945 86.7811C235.049 86.1597 233.942 85.8504 232.638 85.8504C231.604 85.8504 230.677 86.0984 229.86 86.6051C229.044 87.1064 228.398 87.8251 227.928 88.7597C227.45 89.6997 227.216 90.7984 227.216 92.0637C227.216 93.3051 227.45 94.3957 227.928 95.3224C228.398 96.2531 229.044 96.9704 229.86 97.4744C230.677 97.9757 231.604 98.2251 232.638 98.2251C233.942 98.2251 235.049 97.9157 235.945 97.2944C236.846 96.6704 237.5 95.8357 237.904 94.7824H240.065C239.589 96.4317 238.718 97.7344 237.456 98.6891C236.196 99.6397 234.596 100.118 232.661 100.118C231.174 100.118 229.865 99.7744 228.724 99.0931C227.586 98.4144 226.696 97.4597 226.057 96.2371C225.422 95.0157 225.101 93.6251 225.101 92.0637C225.101 90.4877 225.422 89.0824 226.057 87.8544C226.696 86.6211 227.586 85.6677 228.724 84.9811C229.865 84.3011 231.174 83.9624 232.661 83.9624C234.596 83.9624 236.196 84.4357 237.456 85.3877Z" fill="white"/>
<path d="M246.378 89.764C245.758 90.0974 245.252 90.6054 244.87 91.284C244.487 91.9694 244.296 92.8094 244.296 93.8147C244.296 94.804 244.487 95.6387 244.87 96.3254C245.252 97.0094 245.758 97.512 246.378 97.8467C247 98.1787 247.68 98.3387 248.416 98.3387C249.148 98.3387 249.828 98.1787 250.451 97.8467C251.072 97.512 251.575 97.0094 251.959 96.3254C252.344 95.6387 252.534 94.804 252.534 93.8147C252.534 92.8094 252.344 91.9694 251.959 91.284C251.575 90.6054 251.072 90.0974 250.451 89.764C249.828 89.4347 249.148 89.2694 248.416 89.2694C247.68 89.2694 247 89.4347 246.378 89.764ZM251.599 88.2374C252.536 88.744 253.271 89.4787 253.802 90.444C254.336 91.3987 254.604 92.5254 254.604 93.8147C254.604 95.108 254.336 96.228 253.802 97.1774C253.271 98.132 252.536 98.8667 251.599 99.376C250.659 99.8867 249.602 100.141 248.416 100.141C247.23 100.141 246.17 99.8867 245.232 99.376C244.292 98.8667 243.552 98.132 243.014 97.1774C242.474 96.228 242.203 95.108 242.203 93.8147C242.203 92.5254 242.474 91.3987 243.014 90.444C243.552 89.4787 244.292 88.744 245.232 88.2374C246.17 87.7267 247.23 87.4694 248.416 87.4694C249.602 87.4694 250.659 87.7267 251.599 88.2374" fill="white"/>
<path d="M267.273 88.8071C268.159 89.7311 268.596 91.0644 268.596 92.8071V99.9857H266.552V92.9831C266.552 91.7537 266.24 90.8111 265.609 90.1431C264.976 89.4884 264.123 89.1591 263.044 89.1591C261.916 89.1591 261.013 89.5217 260.344 90.2524C259.664 90.9791 259.328 92.0391 259.328 93.4337V99.9857H257.281V87.6297H259.328V90.5564C259.643 89.5511 260.203 88.7777 261.008 88.2377C261.807 87.6977 262.735 87.4297 263.781 87.4297C265.227 87.4297 266.388 87.8884 267.273 88.8071Z" fill="white"/>
<path d="M277.648 98.1807V99.9821H276.12C274.859 99.9821 273.916 99.6861 273.294 99.0821C272.672 98.4807 272.362 97.4754 272.362 96.0661V89.4087H270.512V87.6287H272.362V84.5434H274.432V87.6287H277.624V89.4087H274.432V96.1101C274.432 96.9074 274.575 97.4474 274.867 97.7461C275.159 98.0367 275.664 98.1807 276.388 98.1807H277.648Z" fill="white"/>
<path d="M283.971 88.1339C284.75 87.6619 285.682 87.4259 286.763 87.4259V89.6512H286.133C284.977 89.6512 284.034 89.9499 283.297 90.5406C282.559 91.1339 282.193 92.1126 282.193 93.4792V99.9859H280.143V87.6299H282.193V90.1219C282.597 89.2699 283.193 88.6086 283.971 88.1339Z" fill="white"/>
<path d="M292.351 89.764C291.731 90.0974 291.229 90.6054 290.846 91.284C290.461 91.9694 290.273 92.8094 290.273 93.8147C290.273 94.804 290.461 95.6387 290.846 96.3254C291.229 97.0094 291.731 97.512 292.351 97.8467C292.974 98.1787 293.654 98.3387 294.393 98.3387C295.125 98.3387 295.805 98.1787 296.425 97.8467C297.049 97.512 297.554 97.0094 297.934 96.3254C298.321 95.6387 298.507 94.804 298.507 93.8147C298.507 92.8094 298.321 91.9694 297.934 91.284C297.554 90.6054 297.049 90.0974 296.425 89.764C295.805 89.4347 295.125 89.2694 294.393 89.2694C293.654 89.2694 292.974 89.4347 292.351 89.764ZM297.575 88.2374C298.513 88.744 299.247 89.4787 299.778 90.444C300.315 91.3987 300.578 92.5254 300.578 93.8147C300.578 95.108 300.315 96.228 299.778 97.1774C299.247 98.132 298.513 98.8667 297.575 99.376C296.635 99.8867 295.575 100.141 294.393 100.141C293.203 100.141 292.143 99.8867 291.206 99.376C290.269 98.8667 289.531 98.132 288.99 97.1774C288.453 96.228 288.177 95.108 288.177 93.8147C288.177 92.5254 288.453 91.3987 288.99 90.444C289.531 89.4787 290.269 88.744 291.206 88.2374C292.143 87.7267 293.203 87.4694 294.393 87.4694C295.575 87.4694 296.635 87.7267 297.575 88.2374" fill="white"/>
<path d="M305.305 99.9856H303.258V83.3323H305.305V99.9856Z" fill="white"/>
<path d="M90.6619 14.5973C90.6619 22.6613 84.1286 29.2 76.0686 29.2C68.0006 29.2 61.4646 22.6613 61.4646 14.5973C61.4646 6.54001 68.0006 1.44561e-05 76.0686 1.44561e-05C84.1286 1.44561e-05 90.6619 6.54001 90.6619 14.5973Z" fill="white"/>
<path d="M0.000488281 73.8969C2.78982 69.6835 7.24049 66.6355 12.5578 65.7222C12.7112 65.6955 12.9352 65.6502 13.1938 65.6142L13.2378 65.5915L13.9405 65.5249C14.4725 65.4795 15.0392 65.4409 15.7085 65.4409C27.9245 65.4089 28.2765 55.0782 28.2765 53.9049C28.2765 47.8155 31.3472 42.4422 36.0165 39.2262H15.7085H14.6952C6.62849 39.2262 0.0284883 45.8289 0.0284883 53.9049C0.0284883 53.9955 0.0364883 54.0822 0.0364883 54.1702C0.0284883 54.4195 0.000488281 54.6729 0.000488281 54.9315V73.8969Z" fill="white"/>
<path d="M58.6802 14.5973C58.6802 8.47601 61.8522 3.09735 66.6496 1.44561e-05H14.5989C6.54157 1.44561e-05 0.000244141 6.54001 0.000244141 14.6013C0.000244141 22.6653 6.54157 29.2 14.5989 29.2H66.6496C61.8522 26.1053 58.6802 20.7253 58.6802 14.5973Z" fill="white"/>
<path d="M46.0813 39.2256C38.0147 39.2256 31.416 45.8256 31.4147 53.9043C31.4147 53.9043 31.4147 68.5309 15.7093 68.5749C15.0973 68.5749 14.584 68.6149 14.112 68.6549H14.0973C13.712 68.6989 13.376 68.7483 13.084 68.8149C5.68267 70.0829 0 76.5376 0 84.2816C0 92.9216 7.068 99.9856 15.7093 99.9856C24.3413 99.9856 31.4147 92.9216 31.4147 84.2816V68.5789H46.0813C54.16 68.5789 60.764 61.9736 60.764 53.9083C60.764 45.8283 54.16 39.2256 46.0813 39.2256Z" fill="white"/>
</svg>
