<svg width="517" height="516" viewBox="0 0 517 516" fill="none" xmlns="http://www.w3.org/2000/svg">
<mask id="path-1-outside-1_4997_8923" maskUnits="userSpaceOnUse" x="0" y="0.000244141" width="517" height="517" fill="black">
<rect fill="white" y="0.000244141" width="517" height="517"/>
<path d="M501.536 14.4901C483.849 -3.19494 450.667 -2.07994 405.576 17.7131C365.481 35.3131 317.892 67.0891 271.021 107.497C250.007 90.1491 218.752 91.2951 199.098 110.948L184.249 125.796H123.356C119.213 125.796 115.856 129.154 115.856 133.296C115.856 137.438 119.213 140.796 123.356 140.796H169.249L64.387 245.651L24.919 206.184C14.354 195.619 14.352 178.518 24.918 167.951L44.158 148.713C49.263 143.607 56.054 140.795 63.275 140.795H93.355C97.498 140.795 100.855 137.437 100.855 133.295C100.855 129.153 97.498 125.795 93.355 125.795H63.275C52.046 125.795 41.49 130.167 33.551 138.107L14.312 157.344C6.372 165.284 2 175.84 2 187.068C2 198.296 6.372 208.851 14.312 216.79L54.153 256.629C41.16 273.896 39.845 297.512 50.899 316.116L30.186 336.83C20.057 346.959 20.055 363.354 30.186 373.484L61.119 404.416C71.227 414.524 87.673 414.52 97.776 404.416L117.3 384.893L131.114 398.706L111.59 418.23C101.485 428.336 101.485 444.779 111.591 454.884L142.525 485.816C152.63 495.92 169.073 495.921 179.18 485.816L199.886 465.11C218.509 476.176 242.1 474.838 259.376 461.842L299.226 501.689C307.166 509.628 317.723 514.001 328.95 514.001C340.179 514.001 350.736 509.629 358.674 501.689L377.914 482.451C385.853 474.512 390.226 463.956 390.226 452.728V423.639C390.226 419.497 386.869 416.139 382.726 416.139C378.583 416.139 375.226 419.497 375.226 423.639V452.728C375.226 459.949 372.414 466.738 367.308 471.845L348.068 491.083C337.504 501.649 320.401 501.649 309.834 491.083L270.366 451.616C287.435 434.548 340.918 381.068 375.227 346.761V393.641C375.227 397.783 378.584 401.141 382.727 401.141C386.87 401.141 390.227 397.783 390.227 393.641V331.762C398.31 323.679 403.786 318.204 405.077 316.913C424.911 297.079 425.815 265.874 408.528 244.985C448.209 198.965 511.621 113.18 513.942 52.6411C514.569 36.1861 510.397 23.3501 501.536 14.4901V14.4901ZM394.466 306.306L254.452 446.312C242.827 457.936 225.343 460.691 210.973 454.019C219.126 445.843 224.038 434.998 224.806 423.47C225.081 419.337 221.954 415.764 217.822 415.488C213.676 415.213 210.115 418.339 209.84 422.473C209.312 430.398 205.931 437.852 200.319 443.463L168.573 475.209C164.313 479.466 157.387 479.466 153.13 475.209L122.197 444.277C117.93 440.01 117.929 433.104 122.196 428.835L153.943 397.09C159.555 391.479 167.011 388.098 174.936 387.57C179.07 387.295 182.197 383.721 181.921 379.588C181.646 375.454 178.038 372.326 173.94 372.603C162.387 373.373 151.519 378.302 143.336 386.483L141.72 388.098L127.906 374.285L129.521 372.67C137.704 364.489 142.633 353.621 143.403 342.068C143.678 337.935 140.551 334.362 136.419 334.086C132.273 333.811 128.712 336.937 128.437 341.071C127.909 348.997 124.528 356.452 118.916 362.063L87.168 393.81C82.909 398.068 75.982 398.067 71.726 393.81L40.792 362.878C36.523 358.608 36.526 351.705 40.792 347.437L72.539 315.692C78.151 310.08 85.607 306.699 93.533 306.171C97.666 305.896 100.794 302.322 100.518 298.19C100.244 294.056 96.639 290.93 92.537 291.205C81.008 291.972 70.161 296.885 61.983 305.037C55.312 290.668 58.066 273.186 69.691 261.561C73.672 257.58 205.72 125.538 209.704 121.554C224.735 106.525 249.191 106.526 264.221 121.554L287.523 144.855C251.38 183.889 236.738 232.452 260.151 255.863C282.695 278.405 330.551 266.167 371.178 228.506L394.467 251.793C409.531 266.858 409.534 291.24 394.466 306.306V306.306ZM303.319 150.044C337.95 115.414 381.553 100.503 398.537 117.484C414.343 133.29 402.714 175.961 365.975 212.697C331.344 247.326 287.739 262.238 270.758 245.257H270.757C254.938 229.436 266.586 186.774 303.319 150.044V150.044ZM498.949 52.0661C497.336 94.1291 458.839 163.45 398.054 234.169L381.771 217.887C418.237 178.504 432.365 130.1 409.143 106.878C386.632 84.3691 338.814 96.5311 298.127 134.247L281.85 117.97C327.277 78.9391 373.127 48.3371 411.605 31.4471C449.44 14.8381 478.356 12.5221 490.928 25.0961C496.715 30.8821 499.413 39.9561 498.949 52.0661V52.0661Z"/>
</mask>
<path d="M501.536 14.4901C483.849 -3.19494 450.667 -2.07994 405.576 17.7131C365.481 35.3131 317.892 67.0891 271.021 107.497C250.007 90.1491 218.752 91.2951 199.098 110.948L184.249 125.796H123.356C119.213 125.796 115.856 129.154 115.856 133.296C115.856 137.438 119.213 140.796 123.356 140.796H169.249L64.387 245.651L24.919 206.184C14.354 195.619 14.352 178.518 24.918 167.951L44.158 148.713C49.263 143.607 56.054 140.795 63.275 140.795H93.355C97.498 140.795 100.855 137.437 100.855 133.295C100.855 129.153 97.498 125.795 93.355 125.795H63.275C52.046 125.795 41.49 130.167 33.551 138.107L14.312 157.344C6.372 165.284 2 175.84 2 187.068C2 198.296 6.372 208.851 14.312 216.79L54.153 256.629C41.16 273.896 39.845 297.512 50.899 316.116L30.186 336.83C20.057 346.959 20.055 363.354 30.186 373.484L61.119 404.416C71.227 414.524 87.673 414.52 97.776 404.416L117.3 384.893L131.114 398.706L111.59 418.23C101.485 428.336 101.485 444.779 111.591 454.884L142.525 485.816C152.63 495.92 169.073 495.921 179.18 485.816L199.886 465.11C218.509 476.176 242.1 474.838 259.376 461.842L299.226 501.689C307.166 509.628 317.723 514.001 328.95 514.001C340.179 514.001 350.736 509.629 358.674 501.689L377.914 482.451C385.853 474.512 390.226 463.956 390.226 452.728V423.639C390.226 419.497 386.869 416.139 382.726 416.139C378.583 416.139 375.226 419.497 375.226 423.639V452.728C375.226 459.949 372.414 466.738 367.308 471.845L348.068 491.083C337.504 501.649 320.401 501.649 309.834 491.083L270.366 451.616C287.435 434.548 340.918 381.068 375.227 346.761V393.641C375.227 397.783 378.584 401.141 382.727 401.141C386.87 401.141 390.227 397.783 390.227 393.641V331.762C398.31 323.679 403.786 318.204 405.077 316.913C424.911 297.079 425.815 265.874 408.528 244.985C448.209 198.965 511.621 113.18 513.942 52.6411C514.569 36.1861 510.397 23.3501 501.536 14.4901V14.4901ZM394.466 306.306L254.452 446.312C242.827 457.936 225.343 460.691 210.973 454.019C219.126 445.843 224.038 434.998 224.806 423.47C225.081 419.337 221.954 415.764 217.822 415.488C213.676 415.213 210.115 418.339 209.84 422.473C209.312 430.398 205.931 437.852 200.319 443.463L168.573 475.209C164.313 479.466 157.387 479.466 153.13 475.209L122.197 444.277C117.93 440.01 117.929 433.104 122.196 428.835L153.943 397.09C159.555 391.479 167.011 388.098 174.936 387.57C179.07 387.295 182.197 383.721 181.921 379.588C181.646 375.454 178.038 372.326 173.94 372.603C162.387 373.373 151.519 378.302 143.336 386.483L141.72 388.098L127.906 374.285L129.521 372.67C137.704 364.489 142.633 353.621 143.403 342.068C143.678 337.935 140.551 334.362 136.419 334.086C132.273 333.811 128.712 336.937 128.437 341.071C127.909 348.997 124.528 356.452 118.916 362.063L87.168 393.81C82.909 398.068 75.982 398.067 71.726 393.81L40.792 362.878C36.523 358.608 36.526 351.705 40.792 347.437L72.539 315.692C78.151 310.08 85.607 306.699 93.533 306.171C97.666 305.896 100.794 302.322 100.518 298.19C100.244 294.056 96.639 290.93 92.537 291.205C81.008 291.972 70.161 296.885 61.983 305.037C55.312 290.668 58.066 273.186 69.691 261.561C73.672 257.58 205.72 125.538 209.704 121.554C224.735 106.525 249.191 106.526 264.221 121.554L287.523 144.855C251.38 183.889 236.738 232.452 260.151 255.863C282.695 278.405 330.551 266.167 371.178 228.506L394.467 251.793C409.531 266.858 409.534 291.24 394.466 306.306V306.306ZM303.319 150.044C337.95 115.414 381.553 100.503 398.537 117.484C414.343 133.29 402.714 175.961 365.975 212.697C331.344 247.326 287.739 262.238 270.758 245.257H270.757C254.938 229.436 266.586 186.774 303.319 150.044V150.044ZM498.949 52.0661C497.336 94.1291 458.839 163.45 398.054 234.169L381.771 217.887C418.237 178.504 432.365 130.1 409.143 106.878C386.632 84.3691 338.814 96.5311 298.127 134.247L281.85 117.97C327.277 78.9391 373.127 48.3371 411.605 31.4471C449.44 14.8381 478.356 12.5221 490.928 25.0961C496.715 30.8821 499.413 39.9561 498.949 52.0661V52.0661Z" fill="white"/>
<path d="M501.536 14.4901C483.849 -3.19494 450.667 -2.07994 405.576 17.7131C365.481 35.3131 317.892 67.0891 271.021 107.497C250.007 90.1491 218.752 91.2951 199.098 110.948L184.249 125.796H123.356C119.213 125.796 115.856 129.154 115.856 133.296C115.856 137.438 119.213 140.796 123.356 140.796H169.249L64.387 245.651L24.919 206.184C14.354 195.619 14.352 178.518 24.918 167.951L44.158 148.713C49.263 143.607 56.054 140.795 63.275 140.795H93.355C97.498 140.795 100.855 137.437 100.855 133.295C100.855 129.153 97.498 125.795 93.355 125.795H63.275C52.046 125.795 41.49 130.167 33.551 138.107L14.312 157.344C6.372 165.284 2 175.84 2 187.068C2 198.296 6.372 208.851 14.312 216.79L54.153 256.629C41.16 273.896 39.845 297.512 50.899 316.116L30.186 336.83C20.057 346.959 20.055 363.354 30.186 373.484L61.119 404.416C71.227 414.524 87.673 414.52 97.776 404.416L117.3 384.893L131.114 398.706L111.59 418.23C101.485 428.336 101.485 444.779 111.591 454.884L142.525 485.816C152.63 495.92 169.073 495.921 179.18 485.816L199.886 465.11C218.509 476.176 242.1 474.838 259.376 461.842L299.226 501.689C307.166 509.628 317.723 514.001 328.95 514.001C340.179 514.001 350.736 509.629 358.674 501.689L377.914 482.451C385.853 474.512 390.226 463.956 390.226 452.728V423.639C390.226 419.497 386.869 416.139 382.726 416.139C378.583 416.139 375.226 419.497 375.226 423.639V452.728C375.226 459.949 372.414 466.738 367.308 471.845L348.068 491.083C337.504 501.649 320.401 501.649 309.834 491.083L270.366 451.616C287.435 434.548 340.918 381.068 375.227 346.761V393.641C375.227 397.783 378.584 401.141 382.727 401.141C386.87 401.141 390.227 397.783 390.227 393.641V331.762C398.31 323.679 403.786 318.204 405.077 316.913C424.911 297.079 425.815 265.874 408.528 244.985C448.209 198.965 511.621 113.18 513.942 52.6411C514.569 36.1861 510.397 23.3501 501.536 14.4901V14.4901ZM394.466 306.306L254.452 446.312C242.827 457.936 225.343 460.691 210.973 454.019C219.126 445.843 224.038 434.998 224.806 423.47C225.081 419.337 221.954 415.764 217.822 415.488C213.676 415.213 210.115 418.339 209.84 422.473C209.312 430.398 205.931 437.852 200.319 443.463L168.573 475.209C164.313 479.466 157.387 479.466 153.13 475.209L122.197 444.277C117.93 440.01 117.929 433.104 122.196 428.835L153.943 397.09C159.555 391.479 167.011 388.098 174.936 387.57C179.07 387.295 182.197 383.721 181.921 379.588C181.646 375.454 178.038 372.326 173.94 372.603C162.387 373.373 151.519 378.302 143.336 386.483L141.72 388.098L127.906 374.285L129.521 372.67C137.704 364.489 142.633 353.621 143.403 342.068C143.678 337.935 140.551 334.362 136.419 334.086C132.273 333.811 128.712 336.937 128.437 341.071C127.909 348.997 124.528 356.452 118.916 362.063L87.168 393.81C82.909 398.068 75.982 398.067 71.726 393.81L40.792 362.878C36.523 358.608 36.526 351.705 40.792 347.437L72.539 315.692C78.151 310.08 85.607 306.699 93.533 306.171C97.666 305.896 100.794 302.322 100.518 298.19C100.244 294.056 96.639 290.93 92.537 291.205C81.008 291.972 70.161 296.885 61.983 305.037C55.312 290.668 58.066 273.186 69.691 261.561C73.672 257.58 205.72 125.538 209.704 121.554C224.735 106.525 249.191 106.526 264.221 121.554L287.523 144.855C251.38 183.889 236.738 232.452 260.151 255.863C282.695 278.405 330.551 266.167 371.178 228.506L394.467 251.793C409.531 266.858 409.534 291.24 394.466 306.306V306.306ZM303.319 150.044C337.95 115.414 381.553 100.503 398.537 117.484C414.343 133.29 402.714 175.961 365.975 212.697C331.344 247.326 287.739 262.238 270.758 245.257H270.757C254.938 229.436 266.586 186.774 303.319 150.044V150.044ZM498.949 52.0661C497.336 94.1291 458.839 163.45 398.054 234.169L381.771 217.887C418.237 178.504 432.365 130.1 409.143 106.878C386.632 84.3691 338.814 96.5311 298.127 134.247L281.85 117.97C327.277 78.9391 373.127 48.3371 411.605 31.4471C449.44 14.8381 478.356 12.5221 490.928 25.0961C496.715 30.8821 499.413 39.9561 498.949 52.0661V52.0661Z" stroke="white" stroke-width="4" mask="url(#path-1-outside-1_4997_8923)"/>
<path d="M189.444 251.379L189.444 251.379L177.14 233.809C177.14 233.809 177.14 233.809 177.14 233.809C174.447 229.964 175.381 224.664 179.227 221.971L189.444 251.379ZM189.444 251.379C192.14 255.228 197.443 256.156 201.281 253.466M189.444 251.379L201.281 253.466M201.281 253.466C205.128 250.774 206.062 245.473 203.369 241.628C203.369 241.628 203.369 241.628 203.369 241.628L191.065 224.059L201.281 253.466ZM191.065 224.058C188.372 220.213 183.071 219.278 179.227 221.971L191.065 224.058Z" fill="white" stroke="white" stroke-width="2"/>
<path d="M274.379 312.637L274.379 312.637C270.533 309.944 265.236 310.881 262.542 314.724L262.542 314.724C259.849 318.57 260.784 323.871 264.629 326.562L282.2 338.865L282.2 338.865C286.047 341.558 291.346 340.622 294.038 336.778C296.731 332.933 295.797 327.632 291.95 324.94C291.95 324.94 291.95 324.94 291.95 324.94L274.379 312.637Z" fill="white" stroke="white" stroke-width="2"/>
<path d="M218.469 297.537L218.469 297.537C221.788 300.856 221.788 306.238 218.468 309.558C218.468 309.558 218.468 309.558 218.468 309.558M218.469 297.537L238.207 318.687C235.277 315.76 230.528 315.758 227.599 318.687C223.22 323.066 215.724 319.925 215.724 313.769C215.724 311.911 216.448 310.165 217.761 308.851L218.468 309.558M218.469 297.537C215.149 294.219 209.767 294.217 206.448 297.537C202.703 301.282 196.281 298.596 196.281 293.326C196.281 291.733 196.899 290.242 198.026 289.115C201.345 285.796 201.345 280.414 198.026 277.095L198.026 277.095M218.469 297.537L198.026 277.095M218.468 309.558C217.342 310.685 216.724 312.177 216.724 313.769C216.724 319.039 223.146 321.725 226.891 317.98C230.211 314.66 235.593 314.663 238.913 317.98L238.914 317.98C242.233 321.299 242.233 326.682 238.913 330.001M218.468 309.558L238.913 330.001M238.913 330.001L238.206 329.294L238.913 330.001C238.913 330.001 238.913 330.001 238.913 330.001ZM238.913 330.001C229.961 338.952 215.4 338.95 206.45 330.001C202.675 326.228 200.399 321.364 199.868 316.129M238.913 330.001L199.868 316.129M198.026 277.095C194.705 273.775 189.324 273.775 186.004 277.095M198.026 277.095L186.004 277.095M186.004 277.095C172.306 290.793 180.81 314.214 199.868 316.129M186.004 277.095L199.868 316.129" fill="white" stroke="white" stroke-width="2"/>
<path d="M183.421 242.882L183.421 242.882C180.1 239.563 174.719 239.562 171.399 242.882L162.914 251.367C159.595 254.686 159.595 260.069 162.915 263.387C166.235 266.707 171.616 266.707 174.936 263.387L183.421 254.902C183.421 254.902 183.421 254.902 183.421 254.902C186.74 251.584 186.74 246.201 183.421 242.882Z" fill="white" stroke="white" stroke-width="2"/>
<path d="M252.622 341.069L261.106 332.584C261.106 332.584 261.106 332.584 261.106 332.584C264.425 329.264 269.807 329.264 273.127 332.584C276.446 335.903 276.446 341.285 273.126 344.604L252.622 341.069ZM252.622 341.069L252.621 341.069C249.301 344.388 249.301 349.77 252.62 353.089C255.939 356.407 261.322 356.41 264.641 353.089C264.641 353.089 264.641 353.089 264.641 353.089L273.125 344.604L252.622 341.069Z" fill="white" stroke="white" stroke-width="2"/>
</svg>
