<svg width="512" height="512" viewBox="0 0 512 512" fill="none" xmlns="http://www.w3.org/2000/svg">
<path d="M481.918 140.565H429.085C439.746 129.903 493.829 75.8211 504.565 65.0851C514.462 55.1891 514.462 39.0841 504.565 29.1871V29.1861L482.808 7.4281C472.91 -2.4679 456.806 -2.4679 446.91 7.4281C419.349 34.9891 336.94 117.398 313.773 140.565H110.367V90.3201C110.367 84.7971 105.889 80.3201 100.367 80.3201H80.286C36.017 80.3201 0 116.337 0 160.606V456.81C0 487.311 24.683 511.994 55.184 511.994H481.918C498.505 511.994 512 498.499 512 481.912V170.647C512 154.06 498.505 140.565 481.918 140.565V140.565ZM340.796 200.569L311.425 171.198L421.345 61.2781L450.716 90.6491L340.796 200.569ZM300.415 188.473L323.521 211.579L281.159 230.835L300.415 188.473ZM461.052 21.5711C463.152 19.4711 466.567 19.4711 468.666 21.5711L490.423 43.3281C492.522 45.4281 492.523 48.8441 490.423 50.9421L464.858 76.5061L435.487 47.1351L461.052 21.5711ZM20 160.606C20 127.364 47.044 100.32 80.286 100.32H90.367V401.627H55.184C41.824 401.627 29.558 406.399 20 414.328V160.606ZM492 481.912C492 487.471 487.478 491.994 481.918 491.994H55.184C35.734 491.994 20 476.256 20 456.81C20 437.41 35.783 421.626 55.184 421.626H100.368C105.89 421.626 110.368 417.149 110.368 411.626V160.565H293.773C291.194 163.324 289.357 164.471 288.179 167.06L254.582 240.973H200.776C195.253 240.973 190.776 245.45 190.776 250.973C190.776 256.495 195.253 260.973 200.776 260.973C205.567 260.973 263.84 260.973 261.023 260.973C261.294 260.944 263.099 261.016 265.159 260.076L344.934 223.814C345.907 223.372 347.011 222.637 347.868 221.782L409.086 160.564H481.919C487.479 160.564 492.001 165.086 492.001 170.646V481.912H492Z" fill="white"/>
<path d="M451.796 311.177C457.318 311.177 461.796 306.699 461.796 301.177C461.796 295.655 457.318 291.177 451.796 291.177H160.571V220.851C160.571 215.329 156.093 210.851 150.571 210.851C145.048 210.851 140.571 215.329 140.571 220.851V301.177C140.571 306.699 145.048 311.177 150.571 311.177H180.734V451.79C180.734 457.312 185.211 461.79 190.734 461.79H451.795C457.317 461.79 461.795 457.312 461.795 451.79C461.795 446.267 457.317 441.79 451.795 441.79H200.734V311.177H311.265V391.585H281.101C275.579 391.585 271.101 396.063 271.101 401.585C271.101 407.107 275.579 411.585 281.101 411.585H451.795C457.317 411.585 461.795 407.107 461.795 401.585C461.795 396.063 457.317 391.585 451.795 391.585H421.632V311.177H451.796ZM401.633 391.586H331.266V311.178H401.633V391.586Z" fill="white"/>
</svg>
