<svg width="512" height="512" viewBox="0 0 512 512" fill="none" xmlns="http://www.w3.org/2000/svg">
<path d="M502 200.819H281.102C275.58 200.819 271.102 205.296 271.102 210.818V321.307H250.939V210.818C250.939 203.276 242.867 198.422 236.198 202.014L126.752 260.945C125.842 250.325 111.19 79.395 110.333 69.394C109.89 64.2201 105.561 60.2471 100.369 60.2471H40.124C34.933 60.2471 30.604 64.2201 30.16 69.394C-0.548872 427.668 0.00212608 421.036 0.00212608 421.675V502C0.00212608 507.522 4.48011 512 10.0021 512H502C507.522 512 512 507.523 512 502C512 490.532 512 225.482 512 210.817C512 205.295 507.522 200.819 502 200.819V200.819ZM44.9999 130.452H95.4918L98.0807 160.656H42.411L44.9999 130.452ZM133.64 341.307H492V451.838H140.492V421.675C140.492 421.118 140.382 420.137 133.64 341.307V341.307ZM291.102 220.818H491.999V321.307H291.102V220.818ZM230.939 227.56V321.307H131.926L128.613 282.658L230.939 227.56ZM91.1888 80.248L93.7778 110.452H46.7139L49.3029 80.248H91.1888ZM40.697 180.656H99.7957L119.598 411.676H20.895L40.697 180.656ZM20.002 431.675H120.492V492H20.002V431.675ZM140.492 492V471.837H492V492H140.492Z" fill="white"/>
<path d="M371.47 240.981H321.266C315.744 240.981 311.266 245.459 311.266 250.981V291.144C311.266 296.666 315.744 301.144 321.266 301.144H371.47C376.992 301.144 381.47 296.666 381.47 291.144V250.981C381.47 245.459 376.993 240.981 371.47 240.981V240.981ZM361.47 281.144H331.266V260.981H361.47V281.144Z" fill="white"/>
<path d="M461.837 240.981H411.633C406.111 240.981 401.633 245.459 401.633 250.981V291.144C401.633 296.666 406.111 301.144 411.633 301.144H461.837C467.359 301.144 471.837 296.666 471.837 291.144V250.981C471.837 245.459 467.36 240.981 461.837 240.981V240.981ZM451.837 281.144H421.633V260.981H451.837V281.144Z" fill="white"/>
<path d="M170.654 431.675H240.939C246.461 431.675 250.939 427.197 250.939 421.675V371.471C250.939 365.949 246.461 361.471 240.939 361.471H170.654C165.131 361.471 160.654 365.949 160.654 371.471V421.675C160.654 427.198 165.131 431.675 170.654 431.675ZM180.654 381.471H230.939V411.675H180.654V381.471Z" fill="white"/>
<path d="M281.102 431.675H351.388C356.91 431.675 361.388 427.197 361.388 421.675V371.471C361.388 365.949 356.91 361.471 351.388 361.471H281.102C275.58 361.471 271.102 365.949 271.102 371.471V421.675C271.102 427.198 275.58 431.675 281.102 431.675ZM291.102 381.471H341.388V411.675H291.102V381.471Z" fill="white"/>
<path d="M391.551 431.675H461.837C467.359 431.675 471.837 427.197 471.837 421.675V371.471C471.837 365.949 467.359 361.471 461.837 361.471H391.551C386.029 361.471 381.551 365.949 381.551 371.471V421.675C381.551 427.198 386.029 431.675 391.551 431.675ZM401.551 381.471H451.837V411.675H401.551V381.471Z" fill="white"/>
<path d="M136.059 59.11C141.019 61.588 147.016 59.559 149.476 54.638C153.964 45.66 162.988 40.084 173.025 40.084H258.652C276.313 40.084 292.191 30.27 300.088 14.474C302.558 9.53502 300.556 3.52802 295.615 1.05802C290.675 -1.41298 284.669 0.591022 282.199 5.53102C277.711 14.508 268.687 20.085 258.651 20.085H173.024C155.363 20.085 139.485 29.897 131.586 45.693C129.118 50.633 131.12 56.639 136.059 59.11V59.11Z" fill="white"/>
<path d="M278.732 60.2478H193.106C175.445 60.2478 159.567 70.0598 151.668 85.8568C149.198 90.7958 151.2 96.8028 156.141 99.2728C161.08 101.743 167.088 99.7398 169.557 94.7998C174.045 85.8228 183.069 80.2468 193.106 80.2468H278.732C296.392 80.2468 312.27 70.4338 320.17 54.6378C322.64 49.6968 320.638 43.6918 315.698 41.2208C310.755 38.7508 304.751 40.7518 302.281 45.6928C297.792 54.6698 288.768 60.2478 278.732 60.2478V60.2478Z" fill="white"/>
</svg>
