<svg width="512" height="512" viewBox="0 0 512 512" fill="none" xmlns="http://www.w3.org/2000/svg">
<path d="M512 60.204C512 27.008 484.992 0 451.796 0C428.509 0 408.283 13.299 398.273 32.693L182.094 80.369C163.853 84.391 150.613 100.869 150.613 119.55V160.654H140.53C135.007 160.654 130.53 165.132 130.53 170.654V200.817H70.204V160.613C70.204 156.825 68.064 153.363 64.676 151.669L44.594 141.628C39.654 139.157 33.648 141.159 31.178 146.101C28.708 151.04 30.71 157.047 35.651 159.517L50.205 166.794V200.817H40.122C34.6 200.817 30.122 205.294 30.122 210.817V251.021H30.082C13.495 251.02 0 264.515 0 281.102V351.388C0 367.975 13.495 381.47 30.082 381.47H45.184V402.558C19.515 407.278 0 429.803 0 456.816C0 487.245 24.755 512 55.184 512H276.082C306.511 512 331.266 487.245 331.266 456.816C331.266 429.803 311.751 407.277 286.082 402.557V381.47H321.266C326.788 381.47 331.266 376.992 331.266 371.47V250.98C331.266 248.558 330.387 246.218 328.791 244.395L258.505 164.069C256.607 161.899 253.863 160.654 250.98 160.654H240.899V128.468L401.21 92.785C406.395 100.808 413.431 107.52 421.714 112.32V243.535C415.281 241.869 408.538 240.98 401.592 240.98C396.07 240.98 391.592 245.457 391.592 250.98V347.246L354.358 384.48C351.499 387.34 350.643 391.641 352.19 395.378C353.738 399.114 357.384 401.551 361.429 401.551H401.592C445.862 401.551 481.878 365.535 481.878 321.266V112.32C499.866 101.897 512 82.447 512 60.204V60.204ZM150.53 180.653H200.816V291.142C200.816 296.664 205.293 301.142 210.816 301.142H311.265V321.305H150.53C150.53 305.324 150.53 194.668 150.53 180.653V180.653ZM50.122 220.816H130.53V251.02H50.122V220.816ZM20 351.388V281.102C20 275.543 24.522 271.021 30.082 271.021H130.53V361.47H30.082C24.522 361.47 20 356.947 20 351.388V351.388ZM20 456.816C20 437.416 35.783 421.632 55.184 421.632C74.585 421.632 90.368 437.415 90.368 456.816C90.368 476.216 74.585 492 55.184 492C35.783 492 20 476.217 20 456.816V456.816ZM97.662 421.633H233.603C216.648 442.068 216.664 471.585 233.603 492H97.662C114.617 471.565 114.601 442.048 97.662 421.633ZM311.266 456.816C311.266 476.216 295.483 492 276.082 492C256.681 492 240.898 476.217 240.898 456.816C240.898 437.416 256.681 421.632 276.082 421.632C295.483 421.632 311.266 437.416 311.266 456.816V456.816ZM266.082 401.633H65.184V381.47H266.082V401.633ZM150.53 361.47V341.306H311.265V361.47H150.53ZM311.266 254.737V281.142H220.817V180.653H246.442L311.266 254.737ZM228.726 110.688C224.153 111.706 220.899 115.763 220.899 120.449V160.653H170.613V119.55C170.613 110.182 177.253 101.917 186.401 99.901L391.863 54.588C391.267 60.992 391.647 67.419 393.223 74.075L228.726 110.688ZM401.592 381.551H385.571L408.663 358.459C410.538 356.583 411.592 354.04 411.592 351.388V261.809C440.091 266.587 461.878 291.431 461.878 321.266C461.878 354.507 434.834 381.551 401.592 381.551V381.551ZM461.878 268.329C456.116 261.775 449.308 256.17 441.714 251.769V119.547C448.484 120.694 455.102 120.695 461.878 119.547V268.329ZM451.796 100.408C429.627 100.408 411.592 82.373 411.592 60.204C411.592 38.035 429.627 20 451.796 20C473.965 20 492 38.035 492 60.204C492 82.373 473.965 100.408 451.796 100.408Z" fill="white"/>
</svg>
