<svg width="512" height="512" viewBox="0 0 512 512" fill="none" xmlns="http://www.w3.org/2000/svg">
<path d="M256 150.529C275.355 150.529 291.102 134.782 291.102 115.427C291.102 96.0722 275.355 80.3252 256 80.3252C236.645 80.3252 220.897 96.0712 220.897 115.427C220.897 134.783 236.645 150.529 256 150.529V150.529ZM256 100.325C264.327 100.325 271.102 107.1 271.102 115.427C271.102 123.754 264.327 130.529 256 130.529C247.673 130.529 240.897 123.754 240.897 115.427C240.897 107.1 247.673 100.325 256 100.325V100.325Z" fill="white"/>
<path d="M501.999 351.427H471.836V201.49C490.685 201.343 507.172 187.905 511.108 169.419C515.753 147.578 501.762 126.028 479.919 121.38L326.362 88.743C315.568 60.378 288.107 40.162 256 40.162C235.148 40.162 216.253 48.69 202.609 62.436L131.723 47.369L131.757 47.209C135.234 30.85 124.753 14.711 108.394 11.234L58.676 0.666025C42.311 -2.80897 26.178 7.67002 22.7 24.029L1.564 123.466C-5.366 156.069 11.397 188.282 40.163 202.162V250.124C28.478 254.256 20.082 265.408 20.082 278.489C20.082 291.571 28.478 302.723 40.163 306.855V351.426H10C4.477 351.426 0 355.904 0 361.426V501.997C0 507.52 4.477 511.997 10 511.997H501.999C507.522 511.997 511.999 507.52 511.999 501.997C511.999 487.9 511.999 375.184 511.999 361.426C511.999 355.905 507.522 351.427 501.999 351.427V351.427ZM491.999 451.836H431.673V371.428H491.999V451.836ZM421.673 351.427C416.151 351.427 411.673 355.905 411.673 361.427V451.835H379.517C376.77 439.284 320.491 182.191 317.76 169.713L451.837 198.216V351.426H421.673V351.427ZM213.075 177.2C238.801 195.131 273.01 195.262 298.925 177.199L306.292 210.855H205.708L213.075 177.2ZM342.319 375.436L357.309 443.915L278.832 406.113L342.319 375.436ZM255.812 395.024L183.449 360.167L255.975 316.142L328.425 359.937L255.812 395.024ZM275.265 304.433L320.735 276.832L334.632 340.32L275.265 304.433ZM201.33 230.856H310.67L316.213 256.178L255.951 292.758L195.745 256.364L201.33 230.856ZM191.228 277.003L236.663 304.468L177.332 340.483L191.228 277.003ZM169.622 375.705L232.807 406.141L154.697 443.884L169.622 375.705ZM255.826 417.23L327.667 451.836H184.21L255.826 417.23ZM475.76 140.942C486.816 143.295 493.897 154.203 491.546 165.256C489.543 174.667 481.123 181.497 471.525 181.497C468.163 181.497 477.759 183.282 322.662 150.31C328.888 138.46 332.073 124.815 331.062 110.19L475.76 140.942ZM256 60.162C286.473 60.162 311.265 84.954 311.265 115.427C311.265 145.9 286.473 170.692 256 170.692C225.526 170.692 200.734 145.9 200.734 115.427C200.734 84.954 225.526 60.162 256 60.162ZM127.568 66.932L189.561 80.109C183.071 92.268 180.009 105.961 180.901 120.184L119.041 107.032C130.663 52.382 126.735 70.851 127.568 66.932V66.932ZM21.127 127.624L42.263 28.187C43.444 22.632 48.926 19.043 54.518 20.229L104.236 30.797C109.808 31.981 113.379 37.479 112.195 43.051C108.929 58.416 84.356 174.018 80.456 192.369L60.406 188.108C32.901 182.261 15.281 155.129 21.127 127.624V127.624ZM50.163 268.409C55.722 268.409 60.245 272.931 60.245 278.49C60.245 284.05 55.723 288.572 50.163 288.572C44.604 288.572 40.082 284.05 40.082 278.49C40.082 272.931 44.604 268.409 50.163 268.409ZM60.163 306.856C71.848 302.724 80.245 291.572 80.245 278.49C80.245 265.408 71.848 254.256 60.163 250.125V208.504L86.078 214.012C91.459 215.159 96.787 211.729 97.938 206.31L114.882 126.595L185.433 141.596C188.045 148.616 191.68 155.139 196.149 160.995C188.321 196.754 140.296 416.139 132.482 451.836H100.326V361.428C100.326 355.906 95.848 351.428 90.326 351.428H60.163V306.856ZM20 371.427H80.326V451.835H20V371.427ZM491.999 491.999H20V471.836H491.999V491.999Z" fill="white"/>
</svg>
