<svg width="512" height="512" viewBox="0 0 512 512" fill="none" xmlns="http://www.w3.org/2000/svg">
<path d="M169.247 0.000976562C168.113 0.161976 167.485 0.504975 166.646 0.839973L5.99308 71.1257C1.6561 73.0217 -0.756891 77.7007 0.213105 82.3347C1.1821 86.9676 5.26809 90.2866 10.0011 90.2866H20.083V110.45H10.0011C4.47809 110.45 0.00110616 114.928 0.00110616 120.45V160.612C0.00110616 166.134 4.47809 170.612 10.0011 170.612H50.1639C55.6859 170.612 60.1639 166.134 60.1639 160.612V120.45C60.1639 114.928 55.6859 110.45 50.1639 110.45H40.0829V90.2866H160.653V144.032L5.99308 211.696C1.6561 213.592 -0.756891 218.271 0.213105 222.905C1.1821 227.538 5.26809 230.857 10.0011 230.857H20.083V251.02H10.0011C4.47809 251.02 0.00110616 255.497 0.00110616 261.02V301.183C0.00110616 306.705 4.47809 311.183 10.0011 311.183H50.1639C55.6859 311.183 60.1639 306.705 60.1639 301.183V261.02C60.1639 255.498 55.6859 251.02 50.1639 251.02H40.0829V230.857H157.98L107.539 441.795H90.3268C84.8048 441.795 80.3268 446.272 80.3268 451.795V491.999H50.1639C44.6419 491.999 40.164 496.476 40.164 501.999C40.164 507.521 44.6419 511.999 50.1639 511.999H461.836C467.358 511.999 471.836 507.521 471.836 501.999C471.836 496.476 467.358 491.999 461.836 491.999H431.673V451.795C431.673 446.272 427.195 441.795 421.673 441.795H404.462L354.02 230.857H471.917V251.02H461.836C456.314 251.02 451.836 255.497 451.836 261.02V301.183C451.836 306.705 456.314 311.183 461.836 311.183H501.999C507.521 311.183 511.999 306.705 511.999 301.183V261.02C511.999 255.498 507.521 251.02 501.999 251.02H491.917V230.857H501.999C506.732 230.857 510.818 227.538 511.787 222.905C512.757 218.271 510.344 213.593 506.007 211.696L351.347 144.031V90.2866H471.917V110.45H461.836C456.314 110.45 451.836 114.928 451.836 120.45V160.612C451.836 166.134 456.314 170.612 461.836 170.612H501.999C507.521 170.612 511.999 166.134 511.999 160.612V120.45C511.999 114.928 507.521 110.45 501.999 110.45H491.917V90.2866H501.999C506.732 90.2866 510.818 86.9676 511.787 82.3347C512.757 77.7007 510.344 73.0227 506.007 71.1257C505.875 71.0677 345.192 0.770974 345.332 0.831973C344.03 0.264976 342.586 0.000976562 341.347 0.000976562H169.247V0.000976562ZM40.164 150.612H20.001V130.449H40.164V150.612ZM40.164 291.184H20.001V271.021H40.164V291.184ZM491.999 291.184H471.836V271.021H491.999V291.184ZM180.653 101.478L240.268 150.572L180.653 199.667C180.653 173.079 180.653 117.173 180.653 101.478ZM198.528 90.2866H313.473L256.001 137.616L198.528 90.2866ZM198.528 210.857L256 163.527L313.472 210.857H198.528ZM314.016 230.857L256 279.874L197.984 230.857H314.016ZM240.505 292.967L144.244 374.298L176.603 238.976L240.505 292.967ZM256 306.058L357.236 391.591H154.764L256 306.058ZM271.495 292.967L335.397 238.976L367.757 374.298L271.495 292.967ZM331.347 199.667L271.732 150.572L331.347 101.478V199.667ZM331.347 70.2867H180.653V20.0009H331.346V70.2867H331.347ZM160.653 25.2909V70.2867H57.8069L160.653 25.2909ZM160.653 165.861V210.857H57.8069L160.653 165.861ZM411.673 491.999H100.327V461.795H411.673V491.999ZM128.103 441.795L135.326 411.591H376.677L383.9 441.795H128.103ZM454.193 210.857H351.347V165.861L454.193 210.857ZM351.347 70.2867V25.2909L454.194 70.2867H351.347ZM491.999 150.612H471.836V130.449H491.999V150.612Z" fill="white"/>
</svg>
